<svg width="100" height="100" viewBox="0 0 100 100" fill="none" xmlns="http://www.w3.org/2000/svg">
<mask id="mask0_2054_141" style="mask-type:alpha" maskUnits="userSpaceOnUse" x="0" y="0" width="100" height="100">
<rect x="0.5" y="0.5" width="99" height="99" fill="#7D4C4C" stroke="#7C1414"/>
</mask>
<g mask="url(#mask0_2054_141)">
<path d="M49.999 83.3334C53.5407 83.3334 56.9435 82.7952 60.2074 81.7188C63.4712 80.6424 66.5268 79.0973 69.374 77.0834C66.5268 75.0695 63.4712 73.5244 60.2074 72.448C56.9435 71.3716 53.5407 70.8334 49.999 70.8334C46.4574 70.8334 43.0546 71.3716 39.7907 72.448C36.5268 73.5244 33.4712 75.0695 30.624 77.0834C33.4712 79.0973 36.5268 80.6424 39.7907 81.7188C43.0546 82.7952 46.4574 83.3334 49.999 83.3334ZM61.0407 49.1667L55.1032 43.2292C55.4504 42.6737 55.7282 42.0834 55.9365 41.4584C56.1449 40.8334 56.249 40.2084 56.249 39.5834C56.249 37.8473 55.6414 36.3716 54.4261 35.1563C53.2108 33.941 51.7351 33.3334 49.999 33.3334C49.374 33.3334 48.749 33.4375 48.124 33.6459C47.499 33.8542 46.9087 34.132 46.3532 34.4792L40.4157 28.5417C41.7351 27.3612 43.2108 26.4757 44.8428 25.8855C46.4747 25.2952 48.1935 25 49.999 25C54.0268 25 57.4643 26.4237 60.3115 29.2709C63.1587 32.1181 64.5824 35.5556 64.5824 39.5834C64.5824 41.3889 64.2872 43.1077 63.6969 44.7396C63.1067 46.3716 62.2212 47.8473 61.0407 49.1667ZM84.7907 72.9167L78.749 66.875C80.2768 64.3056 81.4226 61.5973 82.1865 58.75C82.9504 55.9028 83.3324 52.9862 83.3324 50C83.3324 40.6945 80.1032 32.8125 73.6449 26.3542C67.1865 19.8959 59.3046 16.6667 49.999 16.6667C47.0129 16.6667 44.0962 17.0487 41.249 17.8125C38.4018 18.5764 35.6935 19.7223 33.124 21.25L27.0824 15.2084C30.4851 12.9862 34.131 11.2848 38.0199 10.1042C41.9087 8.92365 45.9018 8.33337 49.999 8.33337C55.7629 8.33337 61.1796 9.42712 66.249 11.6146C71.3185 13.8021 75.7282 16.7709 79.4782 20.5209C83.2282 24.2709 86.1969 28.6806 88.3844 33.75C90.5719 38.8195 91.6657 44.2362 91.6657 50C91.6657 54.0973 91.0754 58.0903 89.8949 61.9792C88.7143 65.8681 87.0129 69.5139 84.7907 72.9167ZM49.999 91.6667C44.2351 91.6667 38.8185 90.573 33.749 88.3855C28.6796 86.198 24.2699 83.2292 20.5199 79.4792C16.7699 75.7292 13.8011 71.3195 11.6136 66.25C9.42611 61.1806 8.33236 55.7639 8.33236 50C8.33236 45.9028 8.90527 41.9098 10.0511 38.0209C11.1969 34.132 12.881 30.4514 15.1032 26.9792L2.81152 14.5834L8.74902 8.64587L91.249 91.1459L85.3115 97.0834L21.249 33.125C19.7212 35.6945 18.5754 38.4028 17.8115 41.25C17.0476 44.0973 16.6657 47.0139 16.6657 50C16.6657 53.9584 17.3254 57.7431 18.6449 61.3542C19.9643 64.9653 21.874 68.2639 24.374 71.25C28.124 68.4028 32.1692 66.2327 36.5094 64.7396C40.8497 63.2466 45.3462 62.5 49.999 62.5C52.6379 62.5 55.2768 62.7778 57.9157 63.3334C60.5546 63.8889 63.124 64.6528 65.624 65.625L79.4782 79.4792C75.5199 83.4375 71.006 86.4584 65.9365 88.5417C60.8671 90.6251 55.5546 91.6667 49.999 91.6667Z" fill="#2C7A7B"/>
</g>
</svg>
