<svg width="372" height="372" viewBox="0 0 372 372" fill="none" xmlns="http://www.w3.org/2000/svg">
<path d="M177.94 357.448C177.94 366.044 170.756 372.968 162.227 371.889C77.7481 361.193 10.807 294.252 0.111275 209.773C-0.968504 201.244 5.95577 194.06 14.5523 194.06H162.829C171.175 194.06 177.94 200.825 177.94 209.171V357.448Z" fill="black"/>
<path d="M357.448 194.06C366.044 194.06 372.968 201.244 371.889 209.773C361.239 293.89 294.823 360.619 210.856 371.747C202.302 372.881 195.067 365.946 195.067 357.317V209.171C195.067 200.825 201.833 194.06 210.178 194.06H357.448Z" fill="#E0BB20"/>
<path d="M177.94 161.822C177.94 170.167 171.175 176.933 162.829 176.933H14.6817C6.05343 176.933 -0.882082 169.698 0.251497 161.144C11.3797 77.1763 78.1093 10.7611 162.227 0.11127C170.756 -0.968481 177.94 5.9558 177.94 14.5524V161.822Z" fill="#2C7A7B"/>
<path d="M195.067 14.6827C195.067 6.05449 202.302 -0.881044 210.856 0.25254C294.463 11.333 360.668 77.5373 371.748 161.144C372.882 169.698 365.947 176.933 357.318 176.933H210.178C201.833 176.933 195.067 170.167 195.067 161.822V14.6827Z" fill="#841818"/>
<circle cx="186" cy="186" r="139" fill="#FAFAFA"/>
<mask id="mask0_2069_242" style="mask-type:alpha" maskUnits="userSpaceOnUse" x="111" y="111" width="150" height="150">
<rect x="111" y="111" width="150" height="150" fill="#D9D9D9"/>
</mask>
<g mask="url(#mask0_2069_242)">
<path d="M186 176.625C179.125 176.625 172.719 175.349 166.781 172.797C160.844 170.245 155.583 166.729 151 162.25L162.25 155.531C164.75 157.615 167.458 159.333 170.375 160.688C173.292 162.042 176.417 162.979 179.75 163.5V130.375L186 126.625L192.25 130.375V163.5C195.583 162.979 198.708 162.042 201.625 160.688C204.542 159.333 207.25 157.615 209.75 155.531L221 162.25C216.417 166.729 211.156 170.245 205.219 172.797C199.281 175.349 192.875 176.625 186 176.625ZM178.344 235.219L166.781 229.125C166.99 228.187 167.12 227.25 167.172 226.312C167.224 225.375 167.25 224.438 167.25 223.5C167.25 221.104 167.042 218.734 166.625 216.391C166.208 214.047 165.583 211.833 164.75 209.75L136.156 226.938L129.75 223.5V216.156L158.188 199.125C156.104 196.729 153.708 194.594 151 192.719C148.292 190.844 145.375 189.333 142.25 188.188V175.062C153.083 177.875 162.042 183.734 169.125 192.641C176.208 201.547 179.75 211.833 179.75 223.5C179.75 225.583 179.646 227.589 179.438 229.516C179.229 231.443 178.865 233.344 178.344 235.219ZM193.656 235.219C193.135 233.344 192.771 231.443 192.562 229.516C192.354 227.589 192.25 225.583 192.25 223.5C192.25 211.833 195.792 201.547 202.875 192.641C209.958 183.734 218.917 177.875 229.75 175.062V188.188C226.625 189.333 223.708 190.844 221 192.719C218.292 194.594 215.896 196.729 213.812 199.125L242.25 216.156V223.5L235.844 226.938L207.25 209.75C206.417 211.833 205.792 214.047 205.375 216.391C204.958 218.734 204.75 221.104 204.75 223.5C204.75 224.438 204.776 225.375 204.828 226.312C204.88 227.25 205.01 228.187 205.219 229.125L193.656 235.219Z" fill="#1C1B1F"/>
<path d="M186 176.625C179.125 176.625 172.719 175.349 166.781 172.797C160.844 170.245 155.583 166.729 151 162.25L162.25 155.531C164.75 157.615 167.458 159.333 170.375 160.688C173.292 162.042 176.417 162.979 179.75 163.5V130.375L186 126.625L192.25 130.375V163.5C195.583 162.979 198.708 162.042 201.625 160.688C204.542 159.333 207.25 157.615 209.75 155.531L221 162.25C216.417 166.729 211.156 170.245 205.219 172.797C199.281 175.349 192.875 176.625 186 176.625ZM178.344 235.219L166.781 229.125C166.99 228.187 167.12 227.25 167.172 226.312C167.224 225.375 167.25 224.438 167.25 223.5C167.25 221.104 167.042 218.734 166.625 216.391C166.208 214.047 165.583 211.833 164.75 209.75L136.156 226.938L129.75 223.5V216.156L158.188 199.125C156.104 196.729 153.708 194.594 151 192.719C148.292 190.844 145.375 189.333 142.25 188.188V175.062C153.083 177.875 162.042 183.734 169.125 192.641C176.208 201.547 179.75 211.833 179.75 223.5C179.75 225.583 179.646 227.589 179.438 229.516C179.229 231.443 178.865 233.344 178.344 235.219ZM193.656 235.219C193.135 233.344 192.771 231.443 192.562 229.516C192.354 227.589 192.25 225.583 192.25 223.5C192.25 211.833 195.792 201.547 202.875 192.641C209.958 183.734 218.917 177.875 229.75 175.062V188.188C226.625 189.333 223.708 190.844 221 192.719C218.292 194.594 215.896 196.729 213.812 199.125L242.25 216.156V223.5L235.844 226.938L207.25 209.75C206.417 211.833 205.792 214.047 205.375 216.391C204.958 218.734 204.75 221.104 204.75 223.5C204.75 224.438 204.776 225.375 204.828 226.312C204.88 227.25 205.01 228.187 205.219 229.125L193.656 235.219Z" fill="url(#paint0_radial_2069_242)" fill-opacity="0.2"/>
</g>
<defs>
<radialGradient id="paint0_radial_2069_242" cx="0" cy="0" r="1" gradientUnits="userSpaceOnUse" gradientTransform="translate(186 180.922) rotate(90) scale(54.2969 56.25)">
<stop/>
<stop offset="0.336538" stop-color="#841818"/>
<stop offset="0.673077" stop-color="#E0BB20"/>
<stop offset="1" stop-color="#2C7A7B"/>
</radialGradient>
</defs>
</svg>
