<svg width="100" height="100" viewBox="0 0 100 100" fill="none" xmlns="http://www.w3.org/2000/svg">
<mask id="mask0_2054_153" style="mask-type:alpha" maskUnits="userSpaceOnUse" x="0" y="0" width="100" height="100">
<rect width="100" height="100" fill="#D9D9D9"/>
</mask>
<g mask="url(#mask0_2054_153)">
<path d="M50.0003 45.8334C54.5837 45.8334 58.5073 44.2014 61.7712 40.9375C65.035 37.6737 66.667 33.75 66.667 29.1667V16.6667H33.3337V29.1667C33.3337 33.75 34.9656 37.6737 38.2295 40.9375C41.4934 44.2014 45.417 45.8334 50.0003 45.8334ZM16.667 91.6667V83.3334H25.0003V70.8334C25.0003 66.5973 25.9899 62.6216 27.9691 58.9063C29.9482 55.191 32.7087 52.2223 36.2503 50C32.7087 47.7778 29.9482 44.8091 27.9691 41.0938C25.9899 37.3785 25.0003 33.4028 25.0003 29.1667V16.6667H16.667V8.33337H83.3337V16.6667H75.0003V29.1667C75.0003 33.4028 74.0107 37.3785 72.0316 41.0938C70.0524 44.8091 67.292 47.7778 63.7503 50C67.292 52.2223 70.0524 55.191 72.0316 58.9063C74.0107 62.6216 75.0003 66.5973 75.0003 70.8334V83.3334H83.3337V91.6667H16.667Z" fill="#E0BB20"/>
</g>
</svg>
