<svg width="100" height="100" viewBox="0 0 100 100" fill="none" xmlns="http://www.w3.org/2000/svg">
<mask id="mask0_2054_147" style="mask-type:alpha" maskUnits="userSpaceOnUse" x="0" y="0" width="100" height="100">
<rect width="100" height="100" fill="#D9D9D9"/>
</mask>
<g mask="url(#mask0_2054_147)">
<path d="M29.167 8.33337H70.8337V41.0417C70.8337 42.6389 70.4864 44.0625 69.792 45.3125C69.0976 46.5625 68.1253 47.5695 66.8753 48.3334L52.0837 57.0834L55.0003 66.6667H70.8337L57.917 75.8334L62.917 91.6667L50.0003 81.875L37.0837 91.6667L42.0837 75.8334L29.167 66.6667H45.0003L47.917 57.0834L33.1253 48.3334C31.8753 47.5695 30.9031 46.5625 30.2087 45.3125C29.5142 44.0625 29.167 42.6389 29.167 41.0417V8.33337ZM37.5003 16.6667V41.0417L45.8337 46.0417V16.6667H37.5003ZM62.5003 16.6667H54.167V46.0417L62.5003 41.0417V16.6667Z" fill="#1C1B1F"/>
</g>
</svg>
