<svg width="100" height="100" viewBox="0 0 100 100" fill="none" xmlns="http://www.w3.org/2000/svg">
<mask id="mask0_2054_144" style="mask-type:alpha" maskUnits="userSpaceOnUse" x="0" y="0" width="100" height="100">
<rect width="100" height="100" fill="#D9D9D9"/>
</mask>
<g mask="url(#mask0_2054_144)">
<path d="M67.0837 55.4166L61.042 49.375C61.667 46.1111 60.7295 43.0555 58.2295 40.2083C55.7295 37.3611 52.5003 36.25 48.542 36.875L42.5003 30.8333C43.6809 30.2777 44.8788 29.8611 46.0941 29.5833C47.3094 29.3055 48.6114 29.1666 50.0003 29.1666C55.2087 29.1666 59.6357 30.9895 63.2816 34.6354C66.9274 38.2812 68.7503 42.7083 68.7503 47.9166C68.7503 49.3055 68.6114 50.6076 68.3337 51.8229C68.0559 53.0382 67.6392 54.2361 67.0837 55.4166ZM80.417 68.5416L74.3753 62.7083C77.0142 60.6944 79.358 58.4896 81.4066 56.0937C83.4552 53.6979 85.2087 50.9722 86.667 47.9166C83.1948 40.9027 78.2121 35.3298 71.7191 31.1979C65.226 27.0659 57.9864 25 50.0003 25C47.9864 25 46.0073 25.1389 44.0628 25.4166C42.1184 25.6944 40.2087 26.1111 38.3337 26.6666L31.8753 20.2083C34.7225 19.0277 37.6392 18.1423 40.6253 17.552C43.6114 16.9618 46.7364 16.6666 50.0003 16.6666C60.4864 16.6666 69.8267 19.5659 78.0212 25.3645C86.2156 31.1632 92.1531 38.6805 95.8337 47.9166C94.2364 52.0139 92.1357 55.8159 89.5316 59.3229C86.9274 62.8298 83.8892 65.9027 80.417 68.5416ZM82.5003 94.1666L65.0003 76.875C62.5698 77.6389 60.1219 78.2118 57.6566 78.5937C55.1913 78.9757 52.6392 79.1666 50.0003 79.1666C39.5142 79.1666 30.1739 76.2673 21.9795 70.4687C13.785 64.6701 7.84755 57.1527 4.16699 47.9166C5.62533 44.2361 7.4656 40.8159 9.68783 37.6562C11.91 34.4965 14.4448 31.6666 17.292 29.1666L5.83366 17.5L11.667 11.6666L88.3337 88.3333L82.5003 94.1666ZM23.1253 35C21.1114 36.8055 19.2712 38.7847 17.6045 40.9375C15.9378 43.0902 14.5142 45.4166 13.3337 47.9166C16.8059 54.9305 21.7885 60.5034 28.2816 64.6354C34.7746 68.7673 42.0142 70.8333 50.0003 70.8333C51.3892 70.8333 52.7434 70.7465 54.0628 70.5729C55.3823 70.3993 56.7364 70.2083 58.1253 70L54.3753 66.0416C53.6114 66.25 52.8823 66.4062 52.1878 66.5104C51.4934 66.6146 50.7642 66.6666 50.0003 66.6666C44.792 66.6666 40.3649 64.8437 36.7191 61.1979C33.0732 57.552 31.2503 53.125 31.2503 47.9166C31.2503 47.1527 31.3024 46.4236 31.4066 45.7291C31.5107 45.0347 31.667 44.3055 31.8753 43.5416L23.1253 35Z" fill="#841818"/>
</g>
</svg>
